<svg width="843" height="685" viewBox="0 0 843 685" fill="none" xmlns="http://www.w3.org/2000/svg">
<g clip-path="url(#clip0)">
<rect width="843" height="685" fill="#222832"/>
<path fill-rule="evenodd" clip-rule="evenodd" d="M211.889 232.29C223.645 231.879 227.43 217.681 233.839 209.737C238.425 204.054 246.638 205.414 248.783 197.607C254.175 177.976 237.45 164.875 216.255 165.615C195.06 166.356 181.187 178.842 178.731 196.969C176.274 215.097 190.694 233.03 211.889 232.29Z" fill="#191847"/>
<path fill-rule="evenodd" clip-rule="evenodd" d="M212.75 219.7C207.816 214.312 204.371 207.618 204.64 199.973C205.417 177.945 236.228 181.709 242.576 192.591C248.924 203.474 249.198 231.631 241.564 233.882C238.519 234.78 231.907 233.072 225.106 229.297L230.318 258.677L205.632 259.539L212.75 219.7Z" fill="#B28B67"/>
<path fill-rule="evenodd" clip-rule="evenodd" d="M222.663 205.201C221.749 204.759 220.712 204.526 219.62 204.564C216.123 204.686 213.384 207.543 213.502 210.946C213.551 212.335 214.068 213.6 214.901 214.602C213.487 217.123 212.553 219.753 212.311 222.432C207.11 222.613 187.443 203.631 205.706 184.489C223.97 165.346 252.217 190.776 244.059 192.602C239.369 193.651 230.018 198.483 222.663 205.201V205.201Z" fill="#191847"/>
<path fill-rule="evenodd" clip-rule="evenodd" d="M200.379 345.051L243.497 470.02L265.999 576.794L280.701 576.28L252.725 343.223L200.379 345.051Z" fill="#997659"/>
<path fill-rule="evenodd" clip-rule="evenodd" d="M186.532 345.534C191.583 414.8 189.738 450.684 189.37 457.006C189.002 463.327 182.371 504.467 165.995 582.404L181.473 576.486C209.144 504.565 218.131 467.375 221.263 457.948C224.396 448.521 232.258 410.371 244.849 343.498L186.532 345.534Z" fill="#B28B67"/>
<path fill-rule="evenodd" clip-rule="evenodd" d="M165.922 576.951C164.879 580.058 164.383 582.372 164.437 583.895C164.501 585.746 164.905 588.438 165.647 591.968C167.798 591.893 187.137 591.218 223.661 589.942C224.995 584.914 224.031 582.259 220.769 581.975C217.507 581.692 214.796 581.428 212.637 581.184L185.253 570.125C184.726 569.912 184.126 570.166 183.913 570.692C183.909 570.701 183.906 570.71 183.902 570.719L182.316 574.977C179.358 576.483 176.939 577.268 175.059 577.334C173.531 577.387 171.4 576.845 168.666 575.707L168.666 575.707C167.617 575.271 166.411 575.766 165.974 576.814C165.955 576.859 165.938 576.905 165.922 576.951Z" fill="#E4E4E4"/>
<path fill-rule="evenodd" clip-rule="evenodd" d="M262.61 573.575C261.566 576.681 261.071 578.996 261.124 580.518C261.189 582.37 261.592 585.061 262.334 588.592C264.486 588.517 283.824 587.841 320.349 586.566C321.683 581.538 320.719 578.882 317.457 578.599C314.195 578.316 311.484 578.052 309.324 577.807L281.941 566.749C281.414 566.536 280.814 566.79 280.601 567.316C280.597 567.325 280.593 567.334 280.59 567.343L279.003 571.601C276.045 573.106 273.626 573.892 271.746 573.958C270.219 574.011 268.088 573.469 265.354 572.331L265.354 572.331C264.304 571.895 263.099 572.39 262.662 573.437C262.643 573.483 262.626 573.528 262.61 573.575Z" fill="#E4E4E4"/>
<path fill-rule="evenodd" clip-rule="evenodd" d="M195.236 345.231L213.941 409.015L264.209 407.26L254.466 343.162L195.236 345.231Z" fill="#69A1AC"/>
<path fill-rule="evenodd" clip-rule="evenodd" d="M185.979 345.554C181.13 361.946 180.85 383.435 185.141 410.021L236.437 408.23L248.295 343.378L185.979 345.554Z" fill="#89C5CC"/>
<path fill-rule="evenodd" clip-rule="evenodd" d="M290.372 325.585L320.501 352.944C329.105 356.258 336.191 360.001 341.758 364.174C343.027 365.598 344.451 368.362 338.677 367.304C332.904 366.247 326.784 365.394 325.772 367.292C324.76 369.19 328.032 371.929 326.127 374.433C324.857 376.102 320.215 371.096 312.2 359.414L281.278 342.64L290.372 325.585ZM161.18 334.104L182.678 333.437C170.899 376.671 164.527 399.615 163.56 402.268C161.386 408.24 166.736 417.032 169.058 421.776C162.152 425.154 162.494 413.523 153.789 417.942C145.842 421.975 139.935 428.987 130.403 423.565C129.231 422.898 127.88 420.281 130.845 418.096C138.233 412.651 148.822 403.204 150.192 400.168C152.059 396.028 155.722 374.007 161.18 334.104Z" fill="#B28B67"/>
<path fill-rule="evenodd" clip-rule="evenodd" d="M219.121 241.933L227.962 240.099C244.609 277.751 272.556 311.515 311.803 341.391L284.191 377.367C244.486 334.263 219.367 289.238 219.121 241.933Z" fill="#191847"/>
<path fill-rule="evenodd" clip-rule="evenodd" d="M184.245 354.867L263.446 352.101C243.542 308.205 233.046 270.691 231.959 239.56L207.944 236.841C190.22 267.642 186.214 304.942 184.245 354.867Z" fill="#DDE3E9"/>
<path fill-rule="evenodd" clip-rule="evenodd" d="M207.438 236.876C207.441 236.87 207.444 236.864 207.447 236.859L209.007 236.804C210.875 236.803 213.721 236.819 217.546 236.853L223.894 253.121C225.206 273.179 230.185 313.52 238.831 374.145L186.913 375.958C187.196 380.156 187.569 384.39 188.031 388.66L149.427 390.008C152.93 324.773 172.261 273.724 207.419 236.86L207.438 236.876L207.438 236.876Z" fill="#2F3676"/>
<path fill-rule="evenodd" clip-rule="evenodd" d="M188.465 322.061C190.857 348.208 195.187 366.14 201.455 375.855L186.941 376.362C185.647 357.535 186.155 339.435 188.465 322.061L188.465 322.061Z" fill="black" fill-opacity="0.1"/>
<path fill-rule="evenodd" clip-rule="evenodd" d="M197.372 344.128L222.558 331.353L222.973 343.234L197.372 344.128Z" fill="white" fill-opacity="0.2"/>
<g clip-path="url(#clip1)">
<path d="M360.768 289.306C374.601 284.272 379.68 263.338 372.114 242.55C364.548 221.762 347.201 208.992 333.369 214.026C319.537 219.061 314.457 239.994 322.023 260.782C329.589 281.57 346.936 294.341 360.768 289.306Z" fill="#A57939"/>
<path fill-rule="evenodd" clip-rule="evenodd" d="M360.768 289.306C360.749 289.313 360.733 289.286 360.75 289.273C370.522 281.402 373.277 263.005 366.592 244.638C359.903 226.26 345.954 213.935 333.405 214.2C333.302 214.204 333.272 214.061 333.369 214.026C347.2 208.992 364.548 221.762 372.114 242.55C379.68 263.338 374.6 284.272 360.768 289.306Z" fill="#6A462F"/>
<path d="M360.75 289.273L361.632 290.395L360.75 289.273ZM365.273 245.116C368.543 254.1 369.488 263.053 368.449 270.678C367.408 278.317 364.393 284.504 359.866 288.149L361.632 290.394C366.877 286.168 370.127 279.221 371.234 271.103C372.344 262.968 371.325 253.54 367.91 244.157L365.273 245.116ZM333.451 215.625C339.264 215.504 345.552 218.303 351.266 223.485C356.967 228.656 362.001 236.126 365.273 245.116L367.91 244.157C364.493 234.768 359.208 226.886 353.126 221.368C347.055 215.859 340.095 212.63 333.357 212.773L333.451 215.627L333.451 215.625ZM333.858 215.371C340.208 213.059 347.514 214.78 354.275 219.756C361.028 224.729 367.098 232.87 370.796 243.03L373.432 242.071C369.564 231.444 363.176 222.805 355.908 217.454C348.643 212.107 340.363 209.958 332.879 212.682L333.858 215.371ZM370.796 243.03C374.494 253.192 375.079 263.328 373.1 271.477C371.12 279.636 366.629 285.651 360.279 287.962L361.258 290.65C368.741 287.927 373.704 280.956 375.831 272.193C377.96 263.423 377.301 252.7 373.432 242.071L370.796 243.03ZM333.358 212.774C333.669 212.771 333.973 212.879 334.216 213.08C334.458 213.281 334.624 213.561 334.684 213.872C334.744 214.183 334.694 214.504 334.543 214.778C334.391 215.052 334.149 215.262 333.858 215.371L332.879 212.682C332.544 212.804 332.264 213.044 332.091 213.36C331.918 213.676 331.864 214.046 331.938 214.402C332.064 215.02 332.621 215.646 333.452 215.628L333.358 212.774V212.774ZM359.867 288.15C358.568 289.196 359.792 291.184 361.258 290.65L360.279 287.962C361.703 287.444 362.897 289.376 361.632 290.395L359.867 288.15Z" fill="#6A462F"/>
<path fill-rule="evenodd" clip-rule="evenodd" d="M359.3 285.273C359.3 285.273 345.915 273.105 339.159 254.545C332.427 236.048 334.821 218.18 334.837 218.059C334.825 218.146 333.637 227.067 336.998 236.302C340.375 245.582 347.068 251.666 347.068 251.666C347.068 251.666 353.761 257.749 357.139 267.03C360.517 276.31 359.3 285.273 359.3 285.273Z" fill="#6A462F"/>
<path d="M359.3 285.273L358.37 286.33C358.561 286.503 358.793 286.621 359.043 286.672C359.293 286.722 359.551 286.703 359.789 286.616C360.027 286.529 360.237 286.378 360.396 286.179C360.556 285.98 360.658 285.74 360.693 285.485L359.3 285.273ZM334.837 218.059L336.23 218.269C336.28 217.895 336.182 217.513 335.956 217.209C335.73 216.905 335.396 216.702 335.026 216.647C334.657 216.591 334.282 216.686 333.985 216.911C333.688 217.136 333.493 217.473 333.443 217.848L334.837 218.059ZM347.069 251.666L347.998 250.608L347.069 251.666ZM337.841 255.025C341.287 264.491 346.414 272.307 350.665 277.748C352.375 279.941 354.188 282.05 356.098 284.067C356.782 284.786 357.483 285.488 358.201 286.173L358.323 286.287L358.355 286.318L358.366 286.326L358.367 286.33L358.368 286.33L359.3 285.273C360.23 284.215 360.232 284.214 360.232 284.216L360.232 284.214L360.226 284.21L360.201 284.187L360.096 284.088C360.002 284.001 359.862 283.868 359.678 283.69C359.145 283.169 358.622 282.638 358.109 282.097C356.264 280.148 354.512 278.11 352.86 275.991C348.73 270.706 343.787 263.158 340.478 254.065L337.841 255.025ZM333.443 217.848C333.417 218.04 330.985 236.189 337.841 255.025L340.478 254.065C333.867 235.904 336.223 218.323 336.23 218.27L333.443 217.848V217.848ZM338.316 235.822C336.703 231.39 336.175 227.012 336.058 223.715C335.939 220.424 336.231 218.256 336.23 218.269L333.443 217.849C333.422 218.003 332.196 227.209 335.679 236.78L338.316 235.821L338.316 235.822ZM347.069 251.666C347.998 250.608 348 250.607 348 250.609L348 250.607L347.989 250.598C347.905 250.52 347.822 250.442 347.74 250.362C347.563 250.189 347.302 249.928 346.976 249.585C346.069 248.628 345.208 247.627 344.397 246.586C342.362 243.982 339.937 240.274 338.316 235.822L335.68 236.782C337.436 241.608 340.046 245.583 342.201 248.342C343.071 249.457 343.993 250.529 344.964 251.554C345.316 251.924 345.676 252.285 346.045 252.637L346.11 252.699C346.118 252.705 346.124 252.712 346.129 252.715L346.134 252.72L346.136 252.723L347.069 251.666ZM347.069 251.666L346.137 252.724L346.148 252.735C346.232 252.812 346.315 252.89 346.397 252.97C346.574 253.142 346.835 253.403 347.161 253.746C347.814 254.433 348.725 255.448 349.74 256.745C351.774 259.349 354.2 263.058 355.821 267.51L358.457 266.551C356.7 261.723 354.091 257.748 351.935 254.989C351.066 253.874 350.143 252.802 349.172 251.777C348.8 251.386 348.419 251.005 348.027 250.634L348.008 250.617L348.003 250.611L348 250.609L347.069 251.666ZM355.821 267.51C357.441 271.962 357.966 276.361 358.08 279.665C358.128 280.984 358.113 282.304 358.034 283.62C358.004 284.096 357.963 284.572 357.909 285.046L357.908 285.06L359.3 285.273L360.694 285.485L360.694 285.483L360.693 285.481C360.695 285.478 360.694 285.476 360.694 285.472C360.697 285.467 360.696 285.458 360.699 285.448L360.709 285.359C360.718 285.283 360.731 285.173 360.745 285.034C360.773 284.753 360.809 284.348 360.84 283.836C360.925 282.427 360.942 281.013 360.892 279.6C360.769 276.098 360.214 271.377 358.457 266.551L355.821 267.51Z" fill="#6A462F"/>
<path d="M360.768 289.306C374.601 284.272 379.68 263.338 372.114 242.55C364.548 221.762 347.201 208.992 333.369 214.026C319.537 219.061 314.457 239.994 322.023 260.782C329.589 281.57 346.936 294.341 360.768 289.306Z" stroke="black" stroke-width="0.5"/>
<path d="M347.069 251.666C347.069 251.666 340.376 245.583 336.998 236.302C333.62 227.021 334.837 218.059 334.837 218.059" stroke="black" stroke-width="0.5" stroke-linecap="round" stroke-linejoin="round"/>
<path d="M347.068 251.666C347.068 251.666 353.761 257.749 357.139 267.03C360.517 276.311 359.3 285.273 359.3 285.273" stroke="black" stroke-width="0.5" stroke-linecap="round" stroke-linejoin="round"/>
</g>
<path d="M411.248 210.522C425.744 213.078 440.61 197.489 444.451 175.703C448.293 153.917 439.655 134.184 425.159 131.628C410.663 129.072 395.797 144.661 391.956 166.447C388.114 188.233 396.752 207.966 411.248 210.522Z" fill="#A57939"/>
<path fill-rule="evenodd" clip-rule="evenodd" d="M413.72 210.934C413.699 210.93 413.699 210.898 413.721 210.896C426.119 208.966 437.704 194.411 441.098 175.162C444.494 155.902 438.576 138.253 427.576 132.209C427.485 132.161 427.53 132.022 427.631 132.04C442.127 134.596 450.765 154.329 446.924 176.115C443.082 197.901 428.216 213.49 413.72 210.934Z" fill="#6A462F"/>
<path d="M413.721 210.896L413.923 212.309L413.721 210.896ZM439.716 174.917C438.056 184.332 434.398 192.558 429.686 198.642C424.965 204.737 419.26 208.587 413.518 209.48L413.924 212.308C420.579 211.27 426.867 206.879 431.885 200.402C436.914 193.913 440.745 185.238 442.479 175.404L439.716 174.917ZM426.903 133.466C431.998 136.267 436.044 141.835 438.402 149.18C440.753 156.509 441.378 165.495 439.716 174.917L442.479 175.404C444.214 165.565 443.579 156.096 441.071 148.276C438.567 140.47 434.154 134.194 428.248 130.949L426.902 133.467L426.903 133.466ZM427.383 133.449C434.037 134.622 439.505 139.765 442.872 147.455C446.234 155.138 447.42 165.224 445.542 175.871L448.305 176.359C450.269 165.222 449.056 154.546 445.437 146.278C441.819 138.015 435.722 132.014 427.88 130.631L427.383 133.449ZM445.542 175.871C443.664 186.521 439.102 195.591 433.314 201.66C427.52 207.735 420.623 210.698 413.969 209.525L413.472 212.343C421.314 213.726 429.097 210.171 435.322 203.645C441.55 197.114 446.341 187.498 448.305 176.359L445.542 175.871ZM428.248 130.95C428.519 131.103 428.728 131.348 428.838 131.643C428.948 131.939 428.951 132.265 428.848 132.564C428.744 132.863 428.54 133.116 428.272 133.278C428.004 133.44 427.689 133.5 427.383 133.449L427.88 130.631C427.528 130.569 427.165 130.637 426.858 130.824C426.55 131.011 426.318 131.305 426.204 131.65C426.005 132.248 426.174 133.068 426.902 133.468L428.248 130.95V130.95ZM413.517 209.482C411.87 209.739 411.936 212.072 413.472 212.343L413.969 209.525C415.461 209.788 415.529 212.059 413.923 212.309L413.517 209.482Z" fill="#6A462F"/>
<path fill-rule="evenodd" clip-rule="evenodd" d="M413.918 209.556C413.918 209.556 408.41 192.325 411.84 172.874C415.258 153.488 426.265 139.212 426.339 139.115C426.286 139.184 420.796 146.316 419.089 155.994C417.375 165.719 420.129 174.335 420.129 174.335C420.129 174.335 422.883 182.95 421.168 192.676C419.453 202.401 413.918 209.556 413.918 209.556Z" fill="#6A462F"/>
<path d="M413.918 209.556L412.584 210.006C412.663 210.251 412.805 210.47 412.996 210.638C413.188 210.807 413.421 210.919 413.67 210.963C413.92 211.007 414.177 210.981 414.415 210.888C414.652 210.796 414.861 210.639 415.018 210.435L413.918 209.556ZM426.339 139.115L427.441 139.993C427.671 139.694 427.777 139.315 427.733 138.938C427.69 138.562 427.502 138.22 427.21 137.986C426.918 137.753 426.546 137.648 426.176 137.695C425.806 137.742 425.469 137.936 425.238 138.235L426.339 139.115ZM420.129 174.335L421.463 173.884L420.129 174.335ZM410.458 172.63C408.709 182.551 409.241 191.884 410.202 198.721C410.587 201.475 411.103 204.208 411.748 206.91C411.981 207.875 412.237 208.834 412.516 209.785L412.565 209.945L412.577 209.988L412.582 210L412.582 210.004L412.583 210.005L413.918 209.556C415.253 209.104 415.254 209.104 415.254 209.106L415.254 209.104L415.251 209.098L415.241 209.066L415.2 208.928C415.162 208.805 415.108 208.62 415.037 208.373C414.836 207.656 414.648 206.935 414.474 206.21C413.851 203.599 413.353 200.959 412.982 198.297C412.048 191.655 411.541 182.647 413.221 173.117L410.458 172.63ZM425.238 138.235C425.12 138.388 413.939 152.89 410.458 172.63L413.221 173.117C416.577 154.084 427.407 140.037 427.44 139.995L425.238 138.235V138.235ZM420.471 156.238C421.29 151.593 423.022 147.538 424.569 144.623C426.112 141.714 427.448 139.983 427.441 139.993L425.238 138.236C425.142 138.359 419.477 145.719 417.708 155.749L420.471 156.237L420.471 156.238ZM420.129 174.335C421.463 173.884 421.465 173.884 421.464 173.885L421.465 173.884L421.46 173.87C421.426 173.761 421.393 173.652 421.363 173.542C421.295 173.303 421.2 172.947 421.089 172.487C420.782 171.204 420.538 169.907 420.355 168.6C419.895 165.327 419.648 160.904 420.471 156.238L417.708 155.751C416.816 160.808 417.089 165.556 417.576 169.023C417.771 170.423 418.034 171.813 418.363 173.186C418.482 173.682 418.614 174.175 418.757 174.664L418.782 174.75C418.786 174.76 418.787 174.769 418.791 174.773L418.792 174.781L418.793 174.784L420.129 174.335ZM420.129 174.335L418.793 174.785L418.797 174.801C418.832 174.91 418.864 175.019 418.895 175.129C418.963 175.366 419.058 175.723 419.169 176.182C419.391 177.105 419.673 178.439 419.902 180.07C420.362 183.342 420.609 187.767 419.787 192.433L422.549 192.92C423.441 187.861 423.169 183.114 422.682 179.646C422.486 178.246 422.224 176.857 421.895 175.484C421.768 174.959 421.629 174.438 421.475 173.921L421.467 173.896L421.465 173.888L421.464 173.885L420.129 174.335ZM419.787 192.433C418.964 197.099 417.219 201.171 415.666 204.088C415.048 205.255 414.375 206.39 413.649 207.491C413.384 207.889 413.11 208.28 412.827 208.663L412.819 208.675L413.918 209.556L415.02 210.436L415.02 210.434L415.02 210.432C415.023 210.431 415.024 210.428 415.026 210.425C415.031 210.422 415.035 210.414 415.042 210.406L415.096 210.334C415.141 210.273 415.208 210.184 415.289 210.071C415.453 209.841 415.687 209.509 415.971 209.081C416.749 207.903 417.47 206.687 418.133 205.439C419.778 202.344 421.658 197.978 422.549 192.92L419.787 192.433Z" fill="#6A462F"/>
<path d="M413.424 211.509C427.92 214.065 442.786 198.476 446.627 176.69C450.468 154.904 441.831 135.171 427.335 132.615C412.838 130.059 397.973 145.648 394.131 167.434C390.29 189.22 398.927 208.953 413.424 211.509Z" stroke="black" stroke-width="0.5"/>
<path d="M420.379 172.062C420.379 172.062 417.625 163.448 419.34 153.721C421.055 143.994 426.589 136.841 426.589 136.841" stroke="black" stroke-width="0.5" stroke-linecap="round" stroke-linejoin="round"/>
<path d="M420.379 172.062C420.379 172.062 423.133 180.677 421.418 190.403C419.703 200.13 414.169 207.283 414.169 207.283" stroke="black" stroke-width="0.5" stroke-linecap="round" stroke-linejoin="round"/>
<path d="M403.72 91.9339C418.216 94.4899 433.082 78.901 436.924 57.115C440.765 35.3291 432.128 15.5959 417.631 13.0398C403.135 10.4837 388.269 26.0726 384.428 47.8586C380.586 69.6446 389.224 89.3778 403.72 91.9339Z" fill="#A57939"/>
<path fill-rule="evenodd" clip-rule="evenodd" d="M403.72 91.9339C403.699 91.9302 403.699 91.8982 403.721 91.8962C416.119 89.9656 427.704 75.4106 431.098 56.1619C434.494 36.9019 428.576 19.2535 417.576 13.2087C417.485 13.1607 417.53 13.022 417.631 13.0398C432.127 15.5958 440.765 35.329 436.924 57.115C433.082 78.9011 418.216 94.4898 403.72 91.9339Z" fill="#6A462F"/>
<path d="M403.721 91.8962L403.923 93.309L403.721 91.8962ZM429.716 55.9169C428.056 65.332 424.398 73.5581 419.686 79.6418C414.965 85.7368 409.26 89.5871 403.518 90.4804L403.924 93.3076C410.579 92.2703 416.867 87.8794 421.885 81.4023C426.914 74.9126 430.745 66.2376 432.479 56.404L429.716 55.9169ZM416.903 14.4656C421.998 17.267 426.044 22.8352 428.402 30.1799C430.753 37.5089 431.378 46.4947 429.716 55.9169L432.479 56.404C434.214 46.5648 433.579 37.0965 431.071 29.2763C428.567 21.47 424.154 15.1937 418.248 11.9487L416.902 14.4671L416.903 14.4656ZM417.383 14.4486C424.037 15.622 429.505 20.7652 432.872 28.4551C436.234 36.1381 437.42 46.2236 435.542 56.8714L438.305 57.3586C440.269 46.2219 439.056 35.5462 435.437 27.2775C431.819 19.0147 425.722 13.0138 417.88 11.631L417.383 14.4486ZM435.542 56.8714C433.664 67.5207 429.102 76.5912 423.314 82.6595C417.52 88.7353 410.623 91.6984 403.969 90.525L403.472 93.3427C411.314 94.7255 419.097 91.1706 425.322 84.6448C431.55 78.1138 436.341 68.4982 438.305 57.3586L435.542 56.8714ZM418.248 11.9501C418.519 12.1025 418.728 12.3481 418.838 12.6434C418.948 12.9388 418.951 13.2648 418.848 13.5639C418.744 13.863 418.54 14.1159 418.272 14.2778C418.004 14.4397 417.689 14.5002 417.383 14.4486L417.88 11.631C417.528 11.5685 417.165 11.6371 416.858 11.8242C416.55 12.0114 416.318 12.3046 416.204 12.6502C416.005 13.2484 416.174 14.0684 416.902 14.4685L418.248 11.9501V11.9501ZM403.517 90.4818C401.87 90.7389 401.936 93.0718 403.472 93.3427L403.969 90.525C405.461 90.7881 405.529 93.059 403.923 93.309L403.517 90.4818Z" fill="#6A462F"/>
<path fill-rule="evenodd" clip-rule="evenodd" d="M404.465 87.7074C404.465 87.7074 398.957 70.4769 402.387 51.0253C405.805 31.6399 416.812 17.3636 416.886 17.2663C416.833 17.3353 411.343 24.4672 409.636 34.1458C407.922 43.8709 410.676 52.4868 410.676 52.4868C410.676 52.4868 413.43 61.1014 411.715 70.8279C410 80.553 404.465 87.7074 404.465 87.7074Z" fill="#6A462F"/>
<path d="M404.465 87.7074L403.131 88.1578C403.21 88.4029 403.352 88.6214 403.543 88.7899C403.735 88.9584 403.968 89.0706 404.217 89.1146C404.467 89.1587 404.724 89.1329 404.962 89.0399C405.199 88.947 405.407 88.7905 405.565 88.587L404.465 87.7074ZM416.886 17.2663L417.987 18.1447C418.218 17.8456 418.324 17.4661 418.28 17.0898C418.237 16.7134 418.049 16.371 417.757 16.1379C417.465 15.9047 417.093 15.7999 416.723 15.8465C416.353 15.8932 416.016 16.0874 415.785 16.3865L416.886 17.2663ZM410.676 52.4868L412.01 52.0351L410.676 52.4868ZM401.005 50.7817C399.256 60.7026 399.788 70.0352 400.749 76.8722C401.134 79.6268 401.65 82.3599 402.295 85.0616C402.528 86.0264 402.784 86.985 403.063 87.9366L403.112 88.0963L403.124 88.1391L403.129 88.1516L403.129 88.1559L403.13 88.1561L404.465 87.7074C405.8 87.2556 405.801 87.2559 405.801 87.2573L405.801 87.2559L405.798 87.2495L405.788 87.2172L405.747 87.0792C405.709 86.9563 405.655 86.771 405.584 86.5247C405.383 85.8074 405.195 85.0861 405.021 84.3612C404.398 81.7508 403.9 79.1101 403.529 76.4486C402.595 69.8066 402.088 60.7982 403.768 51.2689L401.005 50.7817ZM415.785 16.3865C415.667 16.5399 404.486 31.0413 401.005 50.7817L403.768 51.2689C407.124 32.2357 417.954 18.1882 417.987 18.1461L415.785 16.3865V16.3865ZM411.018 34.3894C411.837 29.7445 413.569 25.6891 415.116 22.7748C416.658 19.8656 417.995 18.1344 417.987 18.1447L415.785 16.3879C415.689 16.5105 410.024 23.87 408.255 33.9008L411.018 34.388L411.018 34.3894ZM410.676 52.4868C412.01 52.0351 412.012 52.0353 412.011 52.0367L412.012 52.0353L412.007 52.0214C411.973 51.9126 411.94 51.8033 411.91 51.6934C411.842 51.4548 411.747 51.0981 411.635 50.6384C411.329 49.3559 411.084 48.0587 410.902 46.7511C410.442 43.4786 410.195 39.0554 411.018 34.3894L408.255 33.9022C407.363 38.9599 407.636 43.7072 408.123 47.1747C408.318 48.5749 408.581 49.9641 408.91 51.3373C409.029 51.8335 409.161 52.3265 409.304 52.8159L409.329 52.9016C409.333 52.9111 409.334 52.92 409.338 52.925L409.339 52.9325L409.34 52.9355L410.676 52.4868ZM410.676 52.4868L409.34 52.937L409.344 52.9523C409.379 53.061 409.411 53.1704 409.442 53.2803C409.51 53.5174 409.605 53.8741 409.716 54.3339C409.938 55.2562 410.22 56.59 410.449 58.2211C410.909 61.4936 411.156 65.9183 410.333 70.5843L413.096 71.0715C413.988 66.0124 413.716 61.2651 413.229 57.7976C413.033 56.3974 412.771 55.0082 412.442 53.635C412.315 53.1102 412.176 52.5891 412.022 52.072L412.014 52.0473L412.012 52.0398L412.011 52.0367L410.676 52.4868ZM410.333 70.5843C409.511 75.2503 407.766 79.3223 406.213 82.2399C405.595 83.4063 404.922 84.5417 404.196 85.6421C403.931 86.04 403.657 86.431 403.374 86.8147L403.366 86.8264L404.465 87.7074L405.567 88.5872L405.567 88.5858L405.567 88.583C405.57 88.5821 405.571 88.5792 405.573 88.5767C405.578 88.5732 405.582 88.5652 405.589 88.5577L405.643 88.4859C405.688 88.4241 405.755 88.3357 405.836 88.2222C406 87.9926 406.234 87.6605 406.518 87.2326C407.296 86.0545 408.017 84.8389 408.68 83.59C410.325 80.4955 412.205 76.1291 413.096 71.0715L410.333 70.5843Z" fill="#6A462F"/>
<path d="M403.72 91.9339C418.216 94.4899 433.082 78.901 436.924 57.115C440.765 35.3291 432.128 15.5959 417.631 13.0398C403.135 10.4837 388.269 26.0726 384.428 47.8586C380.586 69.6446 389.224 89.3778 403.72 91.9339Z" stroke="black" stroke-width="0.5"/>
<path d="M410.676 52.4868C410.676 52.4868 407.921 43.8723 409.636 34.1458C411.352 24.4193 416.886 17.2663 416.886 17.2663" stroke="black" stroke-width="0.5" stroke-linecap="round" stroke-linejoin="round"/>
<path d="M410.676 52.4868C410.676 52.4868 413.43 61.1014 411.715 70.8279C410 80.5544 404.465 87.7074 404.465 87.7074" stroke="black" stroke-width="0.5" stroke-linecap="round" stroke-linejoin="round"/>
<path d="M295.861 138.245C310.644 135.638 319.333 114.835 315.268 91.7801C311.202 68.7251 295.923 52.1484 281.139 54.7551C266.356 57.3618 257.667 78.1648 261.732 101.22C265.798 124.275 281.077 140.852 295.861 138.245Z" fill="#A57939"/>
<path fill-rule="evenodd" clip-rule="evenodd" d="M295.861 138.245C295.84 138.249 295.828 138.217 295.848 138.207C307.029 131.879 312.944 113.272 309.353 92.9015C305.759 72.5196 293.823 57.0519 281.146 54.9429C281.042 54.9275 281.036 54.7732 281.139 54.7551C295.922 52.1485 311.202 68.725 315.268 91.7801C319.333 114.835 310.644 135.638 295.861 138.245Z" fill="#6A462F"/>
<path d="M295.848 138.207L296.544 139.542L295.848 138.207ZM307.944 93.1484C309.7 103.112 309.122 112.602 306.774 120.333C304.421 128.079 300.33 133.94 295.151 136.87L296.544 139.54C302.545 136.142 307.004 129.536 309.505 121.304C312.012 113.056 312.596 103.058 310.761 92.6516L307.944 93.1484ZM280.949 56.4336C286.821 57.4119 292.673 61.5175 297.539 67.9921C302.394 74.4533 306.185 83.1774 307.944 93.1484L310.761 92.6516C308.925 82.2392 304.953 73.0384 299.773 66.144C294.602 59.2619 288.148 54.5815 281.342 53.4496L280.949 56.4351L280.949 56.4336ZM281.402 56.246C288.188 55.0494 295.249 58.227 301.205 64.6863C307.153 71.1408 311.872 80.7604 313.859 92.0286L316.676 91.5317C314.598 79.7463 309.644 69.5487 303.242 62.6024C296.842 55.6618 288.874 51.854 280.876 53.2642L281.402 56.246ZM313.859 92.0286C315.846 103.298 314.703 113.95 311.32 122.048C307.932 130.156 302.384 135.557 295.598 136.754L296.124 139.736C304.122 138.326 310.308 132.02 313.946 123.311C317.587 114.596 318.755 103.32 316.676 91.5317L313.859 92.0286ZM281.342 53.4511C281.656 53.5064 281.943 53.6766 282.153 53.9317C282.363 54.1867 282.482 54.5101 282.49 54.8447C282.497 55.1793 282.392 55.5035 282.193 55.7599C281.994 56.0164 281.714 56.1885 281.402 56.246L280.876 53.2642C280.518 53.3269 280.195 53.5241 279.967 53.8197C279.739 54.1154 279.621 54.4897 279.635 54.8743C279.657 55.5407 280.11 56.2971 280.949 56.4366L281.342 53.4511V53.4511ZM295.151 136.871C293.665 137.713 294.557 140.012 296.124 139.736L295.598 136.754C297.119 136.486 297.992 138.722 296.544 139.542L295.151 136.871Z" fill="#6A462F"/>
<path fill-rule="evenodd" clip-rule="evenodd" d="M295.072 133.772C295.072 133.772 283.677 118.575 280.047 97.9905C276.43 77.4758 281.892 59.351 281.928 59.2278C281.901 59.3155 279.181 68.3667 280.987 78.6091C282.802 88.9007 288.5 96.5 288.5 96.5C288.5 96.5 294.198 104.098 296.013 114.391C297.827 124.682 295.072 133.772 295.072 133.772Z" fill="#6A462F"/>
<path d="M295.072 133.772L293.955 134.695C294.117 134.911 294.331 135.078 294.574 135.178C294.817 135.277 295.08 135.306 295.335 135.261C295.589 135.217 295.826 135.099 296.021 134.923C296.215 134.746 296.359 134.516 296.437 134.257L295.072 133.772ZM281.928 59.2278L283.294 59.7109C283.409 59.3311 283.375 58.9158 283.2 58.5565C283.025 58.1972 282.723 57.9233 282.36 57.7949C281.998 57.6666 281.605 57.6944 281.267 57.8722C280.93 58.0501 280.676 58.3634 280.561 58.7432L281.928 59.2278ZM288.5 96.5L289.617 95.576L288.5 96.5ZM278.638 98.2389C280.489 108.738 284.316 117.84 287.665 124.305C289.012 126.911 290.477 129.449 292.055 131.909C292.62 132.787 293.206 133.651 293.812 134.499L293.915 134.64L293.942 134.679L293.951 134.689L293.952 134.694L293.953 134.694L295.072 133.772C296.189 132.848 296.19 132.848 296.191 132.849L296.19 132.848L296.185 132.843L296.164 132.814L296.076 132.691C295.995 132.583 295.878 132.417 295.723 132.197C295.275 131.555 294.839 130.903 294.415 130.243C292.891 127.866 291.476 125.414 290.175 122.896C286.921 116.615 283.234 107.826 281.456 97.7421L278.638 98.2389ZM280.561 58.7432C280.503 58.938 274.955 77.3486 278.638 98.2389L281.456 97.7421C277.904 77.6002 283.278 59.766 283.295 59.7124L280.561 58.7432V58.7432ZM282.396 78.3607C281.53 73.4453 281.746 68.7922 282.191 65.3411C282.634 61.8965 283.298 59.698 283.294 59.7109L280.562 58.7447C280.513 58.9007 277.707 68.2409 279.578 78.8561L282.396 78.3592L282.396 78.3607ZM288.5 96.5C289.617 95.576 289.618 95.5757 289.619 95.5772L289.618 95.5757L289.609 95.5636C289.537 95.4674 289.467 95.3701 289.399 95.2716C289.25 95.0581 289.032 94.7368 288.762 94.3186C288.013 93.1507 287.318 91.9461 286.679 90.7091C285.075 87.6145 283.267 83.2985 282.396 78.3607L279.579 78.8575C280.522 84.2098 282.47 88.8394 284.169 92.1186C284.854 93.443 285.599 94.7327 286.401 95.9831C286.692 96.4346 286.993 96.8787 287.304 97.315L287.359 97.3915C287.366 97.3995 287.37 97.4079 287.375 97.4116L287.379 97.4186L287.381 97.4213L288.5 96.5ZM288.5 96.5L287.382 97.4228L287.391 97.4365C287.463 97.5326 287.533 97.63 287.601 97.7285C287.75 97.9404 287.968 98.2617 288.238 98.6799C288.778 99.5193 289.522 100.747 290.321 102.289C291.924 105.384 293.733 109.701 294.604 114.639L297.421 114.142C296.477 108.789 294.529 104.159 292.831 100.88C292.146 99.5555 291.401 98.2658 290.598 97.0155C290.291 96.538 289.972 96.0688 289.641 95.6085L289.625 95.5869L289.62 95.5799L289.619 95.5772L288.5 96.5ZM294.604 114.639C295.474 119.577 295.251 124.251 294.802 127.708C294.625 129.089 294.384 130.458 294.08 131.812C293.969 132.302 293.845 132.789 293.71 133.272L293.707 133.286L295.072 133.772L296.439 134.257L296.439 134.255L296.438 134.252C296.441 134.25 296.44 134.247 296.441 134.244C296.444 134.239 296.446 134.23 296.45 134.22L296.476 134.129C296.497 134.051 296.53 133.94 296.567 133.798C296.643 133.511 296.748 133.097 296.868 132.57C297.194 131.121 297.452 129.654 297.643 128.175C298.118 124.51 298.365 119.495 297.421 114.142L294.604 114.639Z" fill="#6A462F"/>
<path d="M295.861 138.245C310.644 135.638 319.333 114.835 315.268 91.7801C311.202 68.7251 295.923 52.1484 281.139 54.7551C266.356 57.3618 257.667 78.1648 261.732 101.22C265.798 124.275 281.077 140.852 295.861 138.245Z" stroke="black" stroke-width="0.5"/>
<path d="M288.5 96.5C288.5 96.5 282.802 88.9022 280.987 78.6091C279.173 68.316 281.928 59.2278 281.928 59.2278" stroke="black" stroke-width="0.5" stroke-linecap="round" stroke-linejoin="round"/>
<path d="M288.5 96.5C288.5 96.5 294.198 104.098 296.013 114.391C297.827 124.684 295.072 133.772 295.072 133.772" stroke="black" stroke-width="0.5" stroke-linecap="round" stroke-linejoin="round"/>
<path fill-rule="evenodd" clip-rule="evenodd" d="M612.613 146.059C618.92 141.717 624.002 135.698 625.491 127.843C629.779 105.212 597.288 101.868 588.261 111.479C579.233 121.091 572.45 149.723 579.766 153.797C582.683 155.421 589.864 155.222 597.715 152.959L585.582 181.688L610.719 188.32L612.613 146.059Z" fill="#B28B67"/>
<path fill-rule="evenodd" clip-rule="evenodd" d="M603.814 124.749C599.346 137.78 595.049 143.751 590.92 142.662C584.727 141.028 580.501 135.745 577.784 135.028C575.803 134.505 575.597 137.079 576.429 139.247C577.116 141.036 582.009 143.876 581.395 146.206C580.78 148.536 577.087 145.634 576.723 147.016C576.12 149.301 574.253 153.406 578.256 154.462C582.307 155.531 594.307 157.132 597.87 151.698C600.169 148.191 603.102 140.441 606.669 128.448C606.922 128.484 607.176 128.535 607.43 128.602C610.9 129.518 612.978 133.049 612.071 136.489C611.61 138.235 610.468 139.622 609.002 140.445C609.919 142.863 610.988 145.418 612.277 148.104C620.393 145.783 628.821 134.944 625.057 121.403C624.678 115.156 621.196 110.954 616.503 108.191C612.847 105.406 608.635 104.089 604.768 104.161C597.557 102.899 590.696 103.369 588.577 104.164C586.831 110.783 587.607 113.088 598.704 115.83C601.044 117.968 602.486 120.966 603.814 124.749Z" fill="#191847"/>
<path fill-rule="evenodd" clip-rule="evenodd" d="M598.83 275.808L546.179 410.058L510.957 523.518L496.876 523.573L550.438 275.994L598.83 275.808Z" fill="#997659"/>
<path fill-rule="evenodd" clip-rule="evenodd" d="M609.535 275.767C610.283 322.869 618.783 386.256 620.114 389.187C621.001 391.141 651.455 415.917 711.476 463.515L701.817 473.891C631.057 433.155 594.033 410.06 590.745 404.603C585.813 396.418 569.567 320.985 556.584 275.971L609.535 275.767Z" fill="#B28B67"/>
<path fill-rule="evenodd" clip-rule="evenodd" d="M712.824 460.038C716.085 461.177 718.333 462.26 719.567 463.287C721.069 464.537 723.051 466.611 725.515 469.509C724.065 471.251 711.034 486.902 686.423 516.462C681.374 514.324 679.783 511.806 681.65 508.91C683.517 506.013 685.044 503.588 686.233 501.633L694.673 471.71C694.836 471.134 695.434 470.799 696.01 470.961C696.02 470.964 696.029 470.967 696.039 470.97L700.61 472.4C703.771 470.912 705.986 469.407 707.252 467.886C708.282 466.65 709.204 464.527 710.019 461.517L710.019 461.517C710.331 460.362 711.521 459.68 712.676 459.992C712.726 460.006 712.775 460.021 712.824 460.038Z" fill="#E4E4E4"/>
<path fill-rule="evenodd" clip-rule="evenodd" d="M516.703 518.371C517.927 521.601 518.542 524.02 518.548 525.626C518.556 527.579 518.241 530.431 517.605 534.181C515.339 534.189 494.974 534.268 456.51 534.416C454.902 529.173 455.807 526.336 459.226 525.904C462.645 525.473 465.486 525.084 467.747 524.738L496.095 511.969C496.64 511.724 497.281 511.967 497.527 512.512C497.531 512.521 497.535 512.531 497.539 512.54L499.382 516.961C502.554 518.426 505.13 519.155 507.11 519.147C508.718 519.141 510.937 518.483 513.766 517.173L513.766 517.173C514.852 516.67 516.14 517.143 516.643 518.228C516.664 518.275 516.684 518.323 516.703 518.371Z" fill="#E4E4E4"/>
<path fill-rule="evenodd" clip-rule="evenodd" d="M563.99 511.642L497.015 504.662L545.752 276.012L605.715 275.781L563.99 511.642Z" fill="#69A1AC"/>
<path fill-rule="evenodd" clip-rule="evenodd" d="M697.564 446.89L653.849 498.837C607.402 448.693 580.31 415.961 572.573 400.643C564.836 385.324 557.773 343.773 551.386 275.991L618.893 275.731C622.469 335.371 624.845 366.577 626.021 369.348C627.196 372.12 651.044 397.967 697.564 446.89Z" fill="#89C5CC"/>
<path fill-rule="evenodd" clip-rule="evenodd" d="M515.814 251.273L477.475 270.285C467.812 271.173 459.564 272.928 452.732 275.551C451.04 276.625 448.807 279.008 454.958 279.59C461.108 280.172 467.551 281.059 468.034 283.264C468.516 285.468 464.418 287.299 465.632 290.371C466.441 292.418 472.575 288.691 484.033 279.187L520.15 271.086L515.814 251.273ZM646.404 274.666L624.082 270.908C630.229 317.528 633.619 342.286 634.25 345.182C635.67 351.699 628.844 360.075 625.749 364.676C632.471 369.172 633.764 357.033 642.215 362.868C649.929 368.193 655.094 376.324 665.804 372.047C667.12 371.521 668.9 368.993 666.118 366.299C659.187 359.586 649.485 348.256 648.488 344.905C647.128 340.335 646.434 316.922 646.404 274.666Z" fill="#B28B67"/>
<path fill-rule="evenodd" clip-rule="evenodd" d="M599.064 170.595L590.105 167.428C550.782 190.965 526.967 245.098 479.823 267.823L487.779 282.028C562.153 285.608 592.095 219.732 599.064 170.595Z" fill="#E87613"/>
<path fill-rule="evenodd" clip-rule="evenodd" d="M619.407 292.96C582.396 286.581 555.171 281.888 537.732 278.882C534 278.239 535.628 272.998 536.634 270.385C548.243 240.228 578.351 210.753 586.014 166.298L610.206 166.683C624.317 201.227 624.438 240.784 619.407 292.96Z" fill="#DDE3E9"/>
<path fill-rule="evenodd" clip-rule="evenodd" d="M634.339 202.407C637.93 202.018 641.033 200.202 643.648 196.96C654.924 182.984 653.281 173.935 644.562 169.551C635.842 165.167 626.642 169.516 611.98 166.989C611.183 166.851 610.444 166.775 609.763 166.76L602.316 165.908C568.856 233.621 554.814 280.226 560.19 305.723L624.474 316.803C626.759 326.297 629.122 334.361 631.563 340.994L649.079 344.013C659.87 291.257 654.957 244.055 634.339 202.407Z" fill="#FF9B21"/>
<path fill-rule="evenodd" clip-rule="evenodd" d="M616.792 277.741C611.869 294.225 606.478 305.875 600.618 312.691L624.474 316.803C621.808 305.728 619.247 292.708 616.792 277.741V277.741Z" fill="black" fill-opacity="0.1"/>
</g>
<defs>
<clipPath id="clip0">
<rect width="843" height="685" fill="white"/>
</clipPath>
<clipPath id="clip1">
<rect width="101" height="103" fill="white" transform="translate(282 220.544) rotate(-20)"/>
</clipPath>
</defs>
</svg>
